<?xml version="1.0" standalone="no"?><!DOCTYPE svg PUBLIC "-//W3C//DTD SVG 20010904//EN" "http://www.w3.org/TR/2001/REC-SVG-20010904/DTD/svg10.dtd"><svg xmlns="http://www.w3.org/2000/svg" version="1.0" width="64.000000pt" height="64.000000pt" viewBox="0 0 64.000000 64.000000" preserveAspectRatio="xMidYMid meet">

<g transform="translate(0.000000,64.000000) scale(0.100000,-0.100000)" fill="#ffffff" stroke="none">
<path d="M16 624 c-20 -19 -23 -163 -4 -182 17 -17 249 -17 266 0 16 16 16 170 0 186 -8 8 -51 12 -129 12 -94 0 -121 -3 -133 -16z m234 -89 l0 -65 -105 0 -105 0 0 65 0 65 105 0 105 0 0 -65z"/>
<path d="M362 628 c-17 -17 -17 -329 0 -346 17 -17 249 -17 266 0 8 8 12 60 12 169 0 130 -3 160 -16 173 -12 13 -39 16 -133 16 -78 0 -121 -4 -129 -12z m238 -173 l0 -145 -105 0 -105 0 0 145 0 145 105 0 105 0 0 -145z"/>
<path d="M12 358 c-8 -8 -12 -60 -12 -169 0 -130 3 -160 16 -173 12 -13 39 -16 133 -16 78 0 121 4 129 12 17 17 17 329 0 346 -17 17 -249 17 -266 0z m238 -173 l0 -145 -105 0 -105 0 0 145 0 145 105 0 105 0 0 -145z"/>
<path d="M362 198 c-16 -16 -16 -170 0 -186 8 -8 51 -12 129 -12 147 0 149 2 149 109 0 46 -5 82 -12 89 -17 17 -249 17 -266 0z m238 -93 l0 -65 -105 0 -105 0 0 65 0 65 105 0 105 0 0 -65z"/>
</g>
</svg>