<?xml version="1.0" standalone="no"?><!DOCTYPE svg PUBLIC "-//W3C//DTD SVG 20010904//EN" "http://www.w3.org/TR/2001/REC-SVG-20010904/DTD/svg10.dtd"><svg xmlns="http://www.w3.org/2000/svg" version="1.0" width="64.000000pt" height="64.000000pt" viewBox="0 0 64.000000 64.000000" preserveAspectRatio="xMidYMid meet">

<g transform="translate(0.000000,64.000000) scale(0.100000,-0.100000)" fill="#ffffff" stroke="none">
<path d="M262 601 c-15 -27 -23 -30 -72 -33 l-55 -3 -5 -100 c-5 -95 -7 -104 -48 -176 -23 -42 -42 -78 -42 -80 0 -3 20 -15 45 -29 38 -21 44 -29 47 -60 l3 -35 93 -3 93 -3 15 -34 c13 -33 17 -35 60 -35 42 0 46 2 59 34 8 18 23 36 35 39 18 5 20 13 20 101 0 97 0 97 45 174 25 42 45 79 45 83 0 3 -20 17 -45 30 -38 20 -44 28 -47 59 l-3 35 -63 3 c-45 2 -75 10 -100 26 -21 12 -43 26 -50 30 -8 5 -18 -3 -30 -23z m87 -27 c2 -2 -17 -4 -42 -4 -44 0 -46 1 -35 19 11 18 14 18 42 4 17 -9 33 -17 35 -19z m141 -249 c0 -143 -4 -225 -10 -225 -5 0 -10 6 -10 13 0 6 -11 22 -24 35 -18 17 -31 21 -50 16 -24 -6 -26 -3 -26 24 0 17 -5 34 -10 37 -19 12 -40 -16 -40 -51 0 -54 -28 -74 -105 -74 l-65 0 0 225 0 225 170 0 170 0 0 -225z m74 123 c17 -14 17 -17 -14 -71 -17 -31 -34 -57 -36 -57 -2 0 -4 36 -4 80 0 87 0 87 54 48z m-434 -198 l0 -79 -35 20 c-19 12 -35 23 -35 25 0 7 62 114 66 114 2 0 4 -36 4 -80z m231 -92 c1 -29 3 -45 6 -35 5 21 23 23 23 2 0 -24 20 -17 21 8 l2 22 4 -23 c3 -15 10 -22 19 -18 10 4 14 -3 14 -23 0 -50 -9 -61 -49 -61 -32 0 -41 5 -63 39 -15 23 -20 37 -12 34 11 -4 14 7 14 51 0 71 20 74 21 4z"/>
<path d="M160 490 l0 -40 160 0 160 0 0 40 0 40 -160 0 -160 0 0 -40z m300 0 l0 -30 -140 0 -140 0 0 30 0 30 140 0 140 0 0 -30z"/>
<path d="M196 414 c-23 -23 -20 -51 8 -69 33 -22 66 -5 66 33 0 49 -42 69 -74 36z m49 -14 c-3 -5 -15 -10 -26 -10 -10 0 -19 -4 -19 -10 0 -14 33 -12 49 3 10 10 12 8 9 -8 -4 -24 -40 -32 -57 -12 -17 21 -3 47 26 47 13 0 21 -4 18 -10z"/>
<path d="M315 400 c-4 -6 22 -10 70 -10 48 0 74 4 70 10 -3 6 -35 10 -70 10 -35 0 -67 -4 -70 -10z"/>
<path d="M348 363 c23 -2 59 -2 80 0 20 2 1 4 -43 4 -44 0 -61 -2 -37 -4z"/>
<path d="M192 308 c-15 -15 -15 -51 0 -66 15 -15 51 -15 66 0 28 28 7 78 -33 78 -12 0 -26 -5 -33 -12z m49 -13 c0 -6 -10 -12 -23 -15 -15 -4 -19 -8 -11 -13 7 -5 22 -3 33 3 22 12 27 1 8 -18 -18 -18 -36 -15 -48 7 -7 15 -6 24 6 36 17 17 36 17 35 0z"/>
<path d="M315 290 c3 -5 37 -10 76 -10 39 0 69 4 69 10 0 6 -32 10 -76 10 -47 0 -73 -4 -69 -10z"/>
<path d="M348 253 c23 -2 59 -2 80 0 20 2 1 4 -43 4 -44 0 -61 -2 -37 -4z"/>
<path d="M266 195 c-2 -7 2 -19 10 -25 8 -7 14 -10 14 -7 0 3 3 12 6 20 3 8 -1 17 -10 20 -8 3 -17 0 -20 -8z"/>
<path d="M194 186 c-8 -21 4 -66 17 -66 6 0 8 4 5 9 -3 5 1 11 8 14 8 3 17 1 19 -6 9 -26 19 3 10 30 -11 32 -49 44 -59 19z m39 -10 c3 -8 0 -17 -8 -20 -14 -5 -28 17 -18 28 10 10 21 7 26 -8z"/>
</g>
</svg>